<svg xmlns="http://www.w3.org/2000/svg" viewBox="-297 388 17 17" fill="#9ea3a8"><path d="M-284.2 388h-9.8a3.01 3.01 0 0 0-3 3v8.9a3.01 3.01 0 0 0 3 3h1.5v-2h-1.5a.94.94 0 0 1-1-1V391c0-.5.4-1 1-1h9.8c.5 0 1 .4 1 1v2.3h2V391c0-1.7-1.3-3-3-3zm-4.47 16.897v-1.2l-2.6-3.3c-.8-.9-1.2-2.4 0-3s1.8 1.2 1.8 1.2-1.7-3.7.2-4c1.3-.2 1.6 1.6 1.6 1.6s-.1-2 1.4-2 1.5 2 1.5 2 0-1.8 1.2-1.8 1.4 1.5 1.4 1.5-.2-.9.9-.9c.9 0 1.1.6 1.2 1.7 0 .4-.1 1.5-.1 2 0 3-2 3.7-2 3.7v2.4h-1.2s-.8-1.2-1.2-1.2-.6 1.2-.6 1.2h-3.5zm.7-6.5v2.5a.5.5 0 1 0 1 0v-2.5a.47.47 0 0 0-.5-.5c-.2 0-.5.2-.5.5zm2 0v3a.5.5 0 1 0 1 0v-3a.5.5 0 1 0-1 0zm2 0v2.5a.5.5 0 1 0 1 0v-2.5a.47.47 0 0 0-.5-.5c-.2 0-.5.3-.5.5z"/></svg>