<svg xmlns="http://www.w3.org/2000/svg" version="1.1" xmlns:xlink="http://www.w3.org/1999/xlink" width="512" height="512" x="0" y="0" viewBox="0 0 100 100" style="enable-background:new 0 0 512 512" xml:space="preserve" class=""><g><path d="M50 86C18.022 86 2 54.008 2 50s16.022-36 48-36 48 31.992 48 36-16.022 36-48 36zM8.044 50C9.163 53.697 22.997 80 50 80s40.837-26.303 41.956-30C90.837 46.303 77.003 20 50 20S9.163 46.303 8.044 50zM50 71c-11.578 0-21-9.42-21-21s9.422-21 21-21 21 9.42 21 21-9.422 21-21 21zm0-36c-8.271 0-15 6.729-15 15s6.729 15 15 15 15-6.729 15-15-6.729-15-15-15z" fill="#ffffff" opacity="1" data-original="#000000"></path></g></svg>